<?xml version="1.0" encoding="utf-8"?>
<!-- Generator: Adobe Illustrator 23.0.5, SVG Export Plug-In . SVG Version: 6.00 Build 0)  -->
<svg version="1.1" id="Layer_1" xmlns="http://www.w3.org/2000/svg" xmlns:xlink="http://www.w3.org/1999/xlink" width="16" height="16" 
	 viewBox="0 0 2500 1583" style="enable-background:new 0 0 2500 1583;" xml:space="preserve">
<style type="text/css">
	.st0{fill:#FFFFFF;}
</style>
<path class="st0" d="M1009,707.7c0,0,236.5-17.6,236.5-294.9C1245.5,135.4,1052,0,806.9,0H0.2v1550.1h806.6
	c0,0,492.4,15.6,492.4-457.5C1299.3,1092.6,1320.8,707.7,1009,707.7L1009,707.7z M748.8,275.5h58.1c0,0,109.6,0,109.6,161.3
	c0,161.3-64.5,184.6-137.6,184.6H355.7V275.5L748.8,275.5L748.8,275.5z M784.1,1274.6H355.7V860.4h451.2c0,0,163.4-2.1,163.4,212.9
	C970.3,1254.6,848.2,1273.3,784.1,1274.6L784.1,1274.6z M1956,394.4c-596.1,0-595.6,595.6-595.6,595.6s-40.9,592.6,595.6,592.6
	c0,0,530.4,30.3,530.4-412.2h-272.8c0,0,9.1,166.6-248.5,166.6c0,0-272.8,18.3-272.8-269.7h803.2
	C2495.6,1067.3,2583.4,394.4,1956,394.4L1956,394.4z M1689.3,860.4c0,0,33.3-238.9,272.8-238.9c239.4,0,236.4,238.9,236.4,238.9
	H1689.3z M2262.1,282.2h-639.6V91.3h639.6V282.2L2262.1,282.2z"/>
</svg>
